<mxfile host="app.diagrams.net" agent="Mozilla/5.0 (Macintosh; Intel Mac OS X 10_15_7) AppleWebKit/537.36 (KHTML, like Gecko) Chrome/131.0.0.0 Safari/537.36" version="25.0.3">
  <diagram name="Page-1" id="FhNgFZ2QAvt9bHxeCZ9p">
    <mxGraphModel dx="1026" dy="1750" grid="1" gridSize="10" guides="1" tooltips="1" connect="1" arrows="1" fold="1" page="1" pageScale="1" pageWidth="850" pageHeight="1100" math="0" shadow="0">
      <root>
        <mxCell id="0" />
        <mxCell id="1" parent="0" />
        <mxCell id="T7jiEjUQD8Qw8ID1WDi2-12" value="" style="rounded=0;whiteSpace=wrap;html=1;" vertex="1" parent="1">
          <mxGeometry x="270" y="380" width="350" height="110" as="geometry" />
        </mxCell>
        <mxCell id="T7jiEjUQD8Qw8ID1WDi2-1" value="RedWin" style="rounded=1;whiteSpace=wrap;html=1;" vertex="1" parent="1">
          <mxGeometry x="150" y="140" width="120" height="60" as="geometry" />
        </mxCell>
        <mxCell id="T7jiEjUQD8Qw8ID1WDi2-2" value="Larc" style="rounded=1;whiteSpace=wrap;html=1;" vertex="1" parent="1">
          <mxGeometry x="530" y="140" width="120" height="60" as="geometry" />
        </mxCell>
        <mxCell id="T7jiEjUQD8Qw8ID1WDi2-3" value="Parquet" style="shape=cylinder3;whiteSpace=wrap;html=1;boundedLbl=1;backgroundOutline=1;size=15;" vertex="1" parent="1">
          <mxGeometry x="410" y="390" width="60" height="80" as="geometry" />
        </mxCell>
        <mxCell id="T7jiEjUQD8Qw8ID1WDi2-4" value="DataVerse/百川" style="rounded=1;whiteSpace=wrap;html=1;" vertex="1" parent="1">
          <mxGeometry x="290" y="140" width="120" height="60" as="geometry" />
        </mxCell>
        <mxCell id="T7jiEjUQD8Qw8ID1WDi2-6" value="BI" style="text;html=1;align=center;verticalAlign=middle;whiteSpace=wrap;rounded=0;" vertex="1" parent="1">
          <mxGeometry x="80" y="155" width="60" height="30" as="geometry" />
        </mxCell>
        <mxCell id="T7jiEjUQD8Qw8ID1WDi2-7" value="AI" style="text;html=1;align=center;verticalAlign=middle;whiteSpace=wrap;rounded=0;" vertex="1" parent="1">
          <mxGeometry x="680" y="155" width="60" height="30" as="geometry" />
        </mxCell>
        <mxCell id="T7jiEjUQD8Qw8ID1WDi2-8" value="TFRecord" style="shape=cylinder3;whiteSpace=wrap;html=1;boundedLbl=1;backgroundOutline=1;size=15;" vertex="1" parent="1">
          <mxGeometry x="530" y="390" width="60" height="80" as="geometry" />
        </mxCell>
        <mxCell id="T7jiEjUQD8Qw8ID1WDi2-10" value="Iceberg" style="shape=cylinder3;whiteSpace=wrap;html=1;boundedLbl=1;backgroundOutline=1;size=15;" vertex="1" parent="1">
          <mxGeometry x="290" y="390" width="60" height="80" as="geometry" />
        </mxCell>
        <mxCell id="T7jiEjUQD8Qw8ID1WDi2-16" value="" style="endArrow=classic;html=1;rounded=0;exitX=0.5;exitY=1;exitDx=0;exitDy=0;entryX=0.223;entryY=-0.009;entryDx=0;entryDy=0;entryPerimeter=0;" edge="1" parent="1" source="T7jiEjUQD8Qw8ID1WDi2-4" target="T7jiEjUQD8Qw8ID1WDi2-12">
          <mxGeometry width="50" height="50" relative="1" as="geometry">
            <mxPoint x="310" y="290" as="sourcePoint" />
            <mxPoint x="360" y="240" as="targetPoint" />
          </mxGeometry>
        </mxCell>
        <mxCell id="T7jiEjUQD8Qw8ID1WDi2-17" value="1. 写入样本" style="edgeLabel;html=1;align=center;verticalAlign=middle;resizable=0;points=[];" vertex="1" connectable="0" parent="T7jiEjUQD8Qw8ID1WDi2-16">
          <mxGeometry x="0.0839" y="-1" relative="1" as="geometry">
            <mxPoint as="offset" />
          </mxGeometry>
        </mxCell>
        <mxCell id="T7jiEjUQD8Qw8ID1WDi2-18" value="" style="endArrow=classic;html=1;rounded=0;exitX=0.45;exitY=1.017;exitDx=0;exitDy=0;exitPerimeter=0;entryX=0.897;entryY=-0.009;entryDx=0;entryDy=0;entryPerimeter=0;" edge="1" parent="1" source="T7jiEjUQD8Qw8ID1WDi2-2" target="T7jiEjUQD8Qw8ID1WDi2-12">
          <mxGeometry width="50" height="50" relative="1" as="geometry">
            <mxPoint x="610" y="260" as="sourcePoint" />
            <mxPoint x="670" y="280" as="targetPoint" />
          </mxGeometry>
        </mxCell>
        <mxCell id="T7jiEjUQD8Qw8ID1WDi2-19" value="3. 读取样本" style="edgeLabel;html=1;align=center;verticalAlign=middle;resizable=0;points=[];" vertex="1" connectable="0" parent="T7jiEjUQD8Qw8ID1WDi2-18">
          <mxGeometry x="0.101" y="3" relative="1" as="geometry">
            <mxPoint as="offset" />
          </mxGeometry>
        </mxCell>
        <mxCell id="T7jiEjUQD8Qw8ID1WDi2-20" value="" style="endArrow=classic;html=1;rounded=0;exitX=1;exitY=0.5;exitDx=0;exitDy=0;entryX=0;entryY=0.5;entryDx=0;entryDy=0;dashed=1;" edge="1" parent="1" source="T7jiEjUQD8Qw8ID1WDi2-4" target="T7jiEjUQD8Qw8ID1WDi2-2">
          <mxGeometry width="50" height="50" relative="1" as="geometry">
            <mxPoint x="410" y="310" as="sourcePoint" />
            <mxPoint x="460" y="260" as="targetPoint" />
          </mxGeometry>
        </mxCell>
        <mxCell id="T7jiEjUQD8Qw8ID1WDi2-21" value="2. 人工维护路径" style="edgeLabel;html=1;align=center;verticalAlign=middle;resizable=0;points=[];fontColor=#FF3333;" vertex="1" connectable="0" parent="T7jiEjUQD8Qw8ID1WDi2-20">
          <mxGeometry x="-0.0167" y="3" relative="1" as="geometry">
            <mxPoint as="offset" />
          </mxGeometry>
        </mxCell>
        <mxCell id="T7jiEjUQD8Qw8ID1WDi2-24" value="" style="endArrow=classic;html=1;rounded=0;exitX=0.5;exitY=0;exitDx=0;exitDy=0;entryX=0.5;entryY=0;entryDx=0;entryDy=0;dashed=1;" edge="1" parent="1" source="T7jiEjUQD8Qw8ID1WDi2-2" target="T7jiEjUQD8Qw8ID1WDi2-1">
          <mxGeometry width="50" height="50" relative="1" as="geometry">
            <mxPoint x="430" y="380" as="sourcePoint" />
            <mxPoint x="480" y="330" as="targetPoint" />
            <Array as="points">
              <mxPoint x="590" y="100" />
              <mxPoint x="210" y="100" />
            </Array>
          </mxGeometry>
        </mxCell>
        <mxCell id="T7jiEjUQD8Qw8ID1WDi2-25" value="4. 人工提供治理范围" style="edgeLabel;html=1;align=center;verticalAlign=middle;resizable=0;points=[];fontColor=#FF3333;" vertex="1" connectable="0" parent="T7jiEjUQD8Qw8ID1WDi2-24">
          <mxGeometry x="-0.0217" y="-5" relative="1" as="geometry">
            <mxPoint as="offset" />
          </mxGeometry>
        </mxCell>
        <mxCell id="T7jiEjUQD8Qw8ID1WDi2-26" value="" style="endArrow=classic;html=1;rounded=0;entryX=0;entryY=0.5;entryDx=0;entryDy=0;" edge="1" parent="1" source="T7jiEjUQD8Qw8ID1WDi2-1" target="T7jiEjUQD8Qw8ID1WDi2-12">
          <mxGeometry width="50" height="50" relative="1" as="geometry">
            <mxPoint x="160" y="360" as="sourcePoint" />
            <mxPoint x="210" y="310" as="targetPoint" />
            <Array as="points">
              <mxPoint x="210" y="435" />
            </Array>
          </mxGeometry>
        </mxCell>
        <mxCell id="T7jiEjUQD8Qw8ID1WDi2-27" value="5. 治理样本" style="edgeLabel;html=1;align=center;verticalAlign=middle;resizable=0;points=[];" vertex="1" connectable="0" parent="T7jiEjUQD8Qw8ID1WDi2-26">
          <mxGeometry x="-0.2136" y="-4" relative="1" as="geometry">
            <mxPoint as="offset" />
          </mxGeometry>
        </mxCell>
        <mxCell id="T7jiEjUQD8Qw8ID1WDi2-28" value="" style="rounded=0;whiteSpace=wrap;html=1;" vertex="1" parent="1">
          <mxGeometry x="990" y="370" width="350" height="110" as="geometry" />
        </mxCell>
        <mxCell id="T7jiEjUQD8Qw8ID1WDi2-29" value="RedWin" style="rounded=1;whiteSpace=wrap;html=1;" vertex="1" parent="1">
          <mxGeometry x="870" y="130" width="120" height="60" as="geometry" />
        </mxCell>
        <mxCell id="T7jiEjUQD8Qw8ID1WDi2-30" value="Larc" style="rounded=1;whiteSpace=wrap;html=1;" vertex="1" parent="1">
          <mxGeometry x="1250" y="130" width="120" height="60" as="geometry" />
        </mxCell>
        <mxCell id="T7jiEjUQD8Qw8ID1WDi2-31" value="Parquet" style="shape=cylinder3;whiteSpace=wrap;html=1;boundedLbl=1;backgroundOutline=1;size=15;" vertex="1" parent="1">
          <mxGeometry x="1130" y="380" width="60" height="80" as="geometry" />
        </mxCell>
        <mxCell id="T7jiEjUQD8Qw8ID1WDi2-32" value="DataVerse/百川" style="rounded=1;whiteSpace=wrap;html=1;" vertex="1" parent="1">
          <mxGeometry x="1010" y="130" width="120" height="60" as="geometry" />
        </mxCell>
        <mxCell id="T7jiEjUQD8Qw8ID1WDi2-33" value="BI" style="text;html=1;align=center;verticalAlign=middle;whiteSpace=wrap;rounded=0;" vertex="1" parent="1">
          <mxGeometry x="800" y="145" width="60" height="30" as="geometry" />
        </mxCell>
        <mxCell id="T7jiEjUQD8Qw8ID1WDi2-34" value="AI" style="text;html=1;align=center;verticalAlign=middle;whiteSpace=wrap;rounded=0;" vertex="1" parent="1">
          <mxGeometry x="1400" y="145" width="60" height="30" as="geometry" />
        </mxCell>
        <mxCell id="T7jiEjUQD8Qw8ID1WDi2-35" value="TFRecord" style="shape=cylinder3;whiteSpace=wrap;html=1;boundedLbl=1;backgroundOutline=1;size=15;" vertex="1" parent="1">
          <mxGeometry x="1250" y="380" width="60" height="80" as="geometry" />
        </mxCell>
        <mxCell id="T7jiEjUQD8Qw8ID1WDi2-36" value="Iceberg" style="shape=cylinder3;whiteSpace=wrap;html=1;boundedLbl=1;backgroundOutline=1;size=15;" vertex="1" parent="1">
          <mxGeometry x="1010" y="380" width="60" height="80" as="geometry" />
        </mxCell>
        <mxCell id="T7jiEjUQD8Qw8ID1WDi2-48" value="" style="endArrow=none;dashed=1;html=1;dashPattern=1 3;strokeWidth=2;rounded=0;" edge="1" parent="1">
          <mxGeometry width="50" height="50" relative="1" as="geometry">
            <mxPoint x="770" y="570" as="sourcePoint" />
            <mxPoint x="770" y="-50" as="targetPoint" />
          </mxGeometry>
        </mxCell>
        <mxCell id="T7jiEjUQD8Qw8ID1WDi2-49" value="&lt;font style=&quot;font-size: 16px;&quot;&gt;现状&lt;/font&gt;" style="text;html=1;align=center;verticalAlign=middle;resizable=0;points=[];autosize=1;strokeColor=none;fillColor=none;" vertex="1" parent="1">
          <mxGeometry x="355" y="18" width="60" height="30" as="geometry" />
        </mxCell>
        <mxCell id="T7jiEjUQD8Qw8ID1WDi2-50" value="&lt;font style=&quot;font-size: 16px;&quot;&gt;统一元数据后&lt;/font&gt;" style="text;html=1;align=center;verticalAlign=middle;resizable=0;points=[];autosize=1;strokeColor=none;fillColor=none;" vertex="1" parent="1">
          <mxGeometry x="1105" y="18" width="120" height="30" as="geometry" />
        </mxCell>
        <mxCell id="T7jiEjUQD8Qw8ID1WDi2-51" value="统一元数据&lt;div&gt;FileSet&lt;/div&gt;" style="rounded=1;whiteSpace=wrap;html=1;fillColor=#d5e8d4;strokeColor=#82b366;" vertex="1" parent="1">
          <mxGeometry x="1105" y="240" width="120" height="60" as="geometry" />
        </mxCell>
        <mxCell id="T7jiEjUQD8Qw8ID1WDi2-52" value="" style="endArrow=classic;html=1;rounded=0;exitX=0.5;exitY=1;exitDx=0;exitDy=0;entryX=0;entryY=0.5;entryDx=0;entryDy=0;" edge="1" parent="1" source="T7jiEjUQD8Qw8ID1WDi2-32" target="T7jiEjUQD8Qw8ID1WDi2-51">
          <mxGeometry width="50" height="50" relative="1" as="geometry">
            <mxPoint x="940" y="300" as="sourcePoint" />
            <mxPoint x="1070" y="270" as="targetPoint" />
            <Array as="points">
              <mxPoint x="1070" y="270" />
            </Array>
          </mxGeometry>
        </mxCell>
        <mxCell id="T7jiEjUQD8Qw8ID1WDi2-54" value="1. 写入样本" style="edgeLabel;html=1;align=center;verticalAlign=middle;resizable=0;points=[];" vertex="1" connectable="0" parent="T7jiEjUQD8Qw8ID1WDi2-52">
          <mxGeometry x="-0.4417" y="-4" relative="1" as="geometry">
            <mxPoint y="1" as="offset" />
          </mxGeometry>
        </mxCell>
        <mxCell id="T7jiEjUQD8Qw8ID1WDi2-55" value="样本" style="text;html=1;align=center;verticalAlign=middle;whiteSpace=wrap;rounded=0;" vertex="1" parent="1">
          <mxGeometry x="410" y="490" width="60" height="30" as="geometry" />
        </mxCell>
        <mxCell id="T7jiEjUQD8Qw8ID1WDi2-56" value="样本" style="text;html=1;align=center;verticalAlign=middle;whiteSpace=wrap;rounded=0;" vertex="1" parent="1">
          <mxGeometry x="1130" y="480" width="60" height="30" as="geometry" />
        </mxCell>
        <mxCell id="T7jiEjUQD8Qw8ID1WDi2-58" value="管理样本" style="endArrow=classic;html=1;rounded=0;exitX=0.5;exitY=1;exitDx=0;exitDy=0;entryX=0.5;entryY=0;entryDx=0;entryDy=0;" edge="1" parent="1" source="T7jiEjUQD8Qw8ID1WDi2-51" target="T7jiEjUQD8Qw8ID1WDi2-28">
          <mxGeometry width="50" height="50" relative="1" as="geometry">
            <mxPoint x="1310" y="350" as="sourcePoint" />
            <mxPoint x="1360" y="300" as="targetPoint" />
          </mxGeometry>
        </mxCell>
        <mxCell id="T7jiEjUQD8Qw8ID1WDi2-60" value="" style="endArrow=classic;html=1;rounded=0;exitX=0.5;exitY=1;exitDx=0;exitDy=0;entryX=1;entryY=0.5;entryDx=0;entryDy=0;" edge="1" parent="1" source="T7jiEjUQD8Qw8ID1WDi2-30" target="T7jiEjUQD8Qw8ID1WDi2-51">
          <mxGeometry width="50" height="50" relative="1" as="geometry">
            <mxPoint x="1340" y="290" as="sourcePoint" />
            <mxPoint x="1390" y="240" as="targetPoint" />
            <Array as="points">
              <mxPoint x="1310" y="270" />
            </Array>
          </mxGeometry>
        </mxCell>
        <mxCell id="T7jiEjUQD8Qw8ID1WDi2-61" value="2. 读取样本" style="edgeLabel;html=1;align=center;verticalAlign=middle;resizable=0;points=[];" vertex="1" connectable="0" parent="T7jiEjUQD8Qw8ID1WDi2-60">
          <mxGeometry x="-0.4727" y="-2" relative="1" as="geometry">
            <mxPoint x="2" y="-14" as="offset" />
          </mxGeometry>
        </mxCell>
        <mxCell id="T7jiEjUQD8Qw8ID1WDi2-65" value="" style="endArrow=classic;html=1;rounded=0;exitX=0.5;exitY=1;exitDx=0;exitDy=0;entryX=0;entryY=1;entryDx=0;entryDy=0;" edge="1" parent="1" source="T7jiEjUQD8Qw8ID1WDi2-29" target="T7jiEjUQD8Qw8ID1WDi2-51">
          <mxGeometry width="50" height="50" relative="1" as="geometry">
            <mxPoint x="940" y="360" as="sourcePoint" />
            <mxPoint x="990" y="310" as="targetPoint" />
            <Array as="points">
              <mxPoint x="930" y="300" />
            </Array>
          </mxGeometry>
        </mxCell>
        <mxCell id="T7jiEjUQD8Qw8ID1WDi2-66" value="3. 治理样本" style="edgeLabel;html=1;align=center;verticalAlign=middle;resizable=0;points=[];" vertex="1" connectable="0" parent="T7jiEjUQD8Qw8ID1WDi2-65">
          <mxGeometry x="-0.6105" y="1" relative="1" as="geometry">
            <mxPoint as="offset" />
          </mxGeometry>
        </mxCell>
        <mxCell id="T7jiEjUQD8Qw8ID1WDi2-67" value="" style="endArrow=classic;html=1;rounded=0;exitX=0;exitY=0.75;exitDx=0;exitDy=0;entryX=0.75;entryY=1;entryDx=0;entryDy=0;dashed=1;" edge="1" parent="1" source="T7jiEjUQD8Qw8ID1WDi2-51" target="T7jiEjUQD8Qw8ID1WDi2-29">
          <mxGeometry width="50" height="50" relative="1" as="geometry">
            <mxPoint x="860" y="400" as="sourcePoint" />
            <mxPoint x="910" y="350" as="targetPoint" />
            <Array as="points">
              <mxPoint x="960" y="285" />
            </Array>
          </mxGeometry>
        </mxCell>
        <mxCell id="T7jiEjUQD8Qw8ID1WDi2-70" value="提供TTL、访问时间" style="edgeLabel;html=1;align=center;verticalAlign=middle;resizable=0;points=[];" vertex="1" connectable="0" parent="T7jiEjUQD8Qw8ID1WDi2-67">
          <mxGeometry x="-0.3833" y="-3" relative="1" as="geometry">
            <mxPoint as="offset" />
          </mxGeometry>
        </mxCell>
      </root>
    </mxGraphModel>
  </diagram>
</mxfile>
